<?xml version="1.0" encoding="utf-8"?>
<!-- Generator: Adobe Illustrator 24.0.2, SVG Export Plug-In . SVG Version: 6.00 Build 0)  -->
<svg version="1.1" id="Layer_1" xmlns="http://www.w3.org/2000/svg" xmlns:xlink="http://www.w3.org/1999/xlink" x="0px" y="0px"
	 viewBox="0 0 24 24" style="enable-background:new 0 0 24 24;" xml:space="preserve">
<style type="text/css">
	.st0{fill:#FFFFFF;}
	.st1{fill-rule:evenodd;clip-rule:evenodd;fill:#F7901E;}
	.st2{fill:#034694;}
</style>
<path class="st0" d="M24,24H0V0h24V24z"/>
<path class="st1" d="M22.99,15.43l-2.6-2.39l2.47,4.21h-2.29l-2.58-6.13c1.66-0.4,2.4-1.96,2.4-1.96l2.6,1.52v1.49l-1.6-0.77
	l1.6,2.1V15.43z M20.56,5.85l2.43-0.6v1.12l-1.37,0.35l1.37,0.27v1.07L21.9,8.1l1.09,0.39v1.47l-2.5-1.03
	C20.49,8.93,21.26,7.49,20.56,5.85z M18.29,3.64l1.32-2.41h1.53L19.69,3.6l2.19-2.37h1.11v1.12l-2.46,1.99l2.46-1.23v1.62
	l-2.51,0.94C20.48,5.67,20.14,4.5,18.29,3.64z M15.43,3.6l-0.57-2.37h1.21l0.24,0.92l0.03-0.92h1.11l-0.06,1.12l0.36-1.12h1.3
	l-0.9,2.35C18.15,3.58,16.88,3.08,15.43,3.6z M13.35,5.28c0,0.01-7.22-4.05-7.22-4.05h3.74l2.17,1.56L10.6,1.23h1.89l0.88,1.13
	l-0.5-1.13h1.41l0.98,2.43C15.27,3.66,14.05,4.05,13.35,5.28z M12.85,8.08c0,0.02-11.84,3.19-11.84,3.19V8.42l7.4-0.97l-7.4-0.49
	V4.64l8,1.05l-8-2.28V1.23h2.77l9.41,4.27C13.19,5.5,12.49,7.05,12.85,8.08z M1.05,12.88l11.86-4.57c0,0,0.28,1.47,1.61,2.27
	l-3.9,6.67H8.05l2.46-3.53L6.9,17.26H2.21l6.93-5.33l-8.12,4.04L1.05,12.88z M17.7,11.22l1.62,6.04h-2.11l-0.43-2.1l-0.03,2.1h-2.15
	l0.14-1.88l-0.53,1.88h-2.26l2.79-6.55C14.72,10.7,15.83,11.56,17.7,11.22z"/>
<path class="st2" d="M1.01,17.72v5.06h21.98v-5.06H1.01z M18.2,20.1c-0.02,0.06-0.06,0.12-0.12,0.18c-0.07-0.06-0.14-0.11-0.19-0.15
	c0.03-0.07,0.07-0.13,0.12-0.18C18.1,20,18.16,20.05,18.2,20.1z M12.6,19.68c0.09,0.04,0.15,0.1,0.19,0.15
	c-0.02,0.07-0.06,0.12-0.12,0.18c-0.08-0.07-0.14-0.12-0.2-0.15C12.51,19.78,12.56,19.72,12.6,19.68z M5.17,19.95
	c0.09,0.05,0.16,0.1,0.19,0.15c-0.02,0.06-0.06,0.12-0.12,0.18c-0.07-0.06-0.14-0.11-0.2-0.15C5.07,20.06,5.11,20,5.17,19.95z
	 M5.79,20.97c-0.1,0.1-0.23,0.14-0.37,0.14H5.09H5.04H5c-0.11,0-0.2-0.05-0.27-0.14c-0.04-0.07-0.08-0.17-0.12-0.3
	c-0.09,0.13-0.23,0.2-0.42,0.2c-0.04,0-0.1-0.01-0.17-0.04c-0.08-0.03-0.12-0.07-0.12-0.1c0-0.04,0.04-0.1,0.11-0.21
	c0.08-0.11,0.15-0.18,0.22-0.23c0.01,0,0.1-0.05,0.28-0.13l-0.01-0.1c0.04-0.08,0.07-0.15,0.1-0.19c0.05,0.27,0.08,0.44,0.09,0.5
	c0.05,0.24,0.11,0.39,0.17,0.44c0.03,0.03,0.1,0.04,0.21,0.04c0.29,0,0.71-0.04,0.75-0.11c-0.01-0.03-0.06-0.13-0.16-0.28
	c0.01-0.05,0.04-0.13,0.1-0.24c0.08,0.12,0.12,0.18,0.12,0.18c0.04,0.08,0.06,0.14,0.06,0.2C5.94,20.75,5.89,20.87,5.79,20.97z
	 M6.8,21.56c-0.05-0.05-0.12-0.1-0.19-0.14c0.03-0.08,0.06-0.14,0.09-0.18c0.08,0.03,0.14,0.08,0.2,0.15
	C6.88,21.45,6.85,21.5,6.8,21.56z M7.1,21.53c-0.03-0.03-0.09-0.08-0.18-0.16c0.03-0.07,0.07-0.13,0.12-0.17
	c0.09,0.05,0.15,0.11,0.18,0.17C7.18,21.44,7.14,21.49,7.1,21.53z M8.39,21.05c-0.05,0.03-0.13,0.05-0.23,0.06v0H8.08
	c-0.07,0-0.14-0.02-0.23-0.06c-0.09-0.04-0.15-0.09-0.18-0.14c-0.06,0.13-0.76,0.2-0.96,0.2v0H6.61c-0.14,0-0.24-0.07-0.32-0.21
	c-0.05-0.1-0.09-0.25-0.12-0.44c-0.01-0.14-0.03-0.28-0.04-0.42c-0.01-0.09-0.05-0.32-0.11-0.69c0.03-0.1,0.08-0.18,0.14-0.23
	c0.03,0.29,0.07,0.58,0.1,0.86c0.06,0.45,0.12,0.7,0.17,0.78c0.05,0.07,0.14,0.1,0.27,0.1c0.14,0,0.8-0.02,0.86-0.05
	c0.03-0.02,0.07-0.06,0.1-0.12c0.03-0.07,0.07-0.12,0.11-0.15c0.01,0.01,0.01,0.02,0.01,0.03c0,0.01,0,0.03-0.01,0.06
	c-0.01,0.02-0.01,0.04-0.01,0.05c0,0.06,0.05,0.11,0.16,0.14c0.08,0.03,0.16,0.04,0.23,0.04h0.09c0.11,0,0.19-0.04,0.25-0.12
	c0.01-0.02,0.06-0.11,0.13-0.26c0.05-0.11,0.12-0.19,0.18-0.23c0.06-0.03,0.1-0.05,0.13-0.05c0.08,0,0.14,0.07,0.2,0.2
	c0.05,0.11,0.08,0.22,0.08,0.31c0,0.17-0.05,0.25-0.16,0.25c-0.07,0-0.15-0.01-0.25-0.04c-0.1-0.03-0.18-0.06-0.23-0.1
	C8.51,20.93,8.45,21.01,8.39,21.05z M9.19,21.72c-0.06,0-0.16-0.02-0.31-0.07c-0.17-0.05-0.26-0.09-0.28-0.12l0.01-0.01
	c0.03,0,0.08,0.01,0.14,0.02c0.06,0.01,0.11,0.02,0.15,0.02c0.14,0,0.31-0.07,0.5-0.21c0.2-0.15,0.29-0.29,0.29-0.43
	c0-0.07-0.07-0.21-0.22-0.42c0.02-0.08,0.05-0.17,0.1-0.27c0.05,0.06,0.1,0.14,0.15,0.23c0.05,0.11,0.08,0.2,0.08,0.26
	c0,0.14-0.02,0.28-0.05,0.41c-0.03,0.14-0.1,0.26-0.2,0.38C9.43,21.65,9.31,21.72,9.19,21.72z M10.73,21.38
	c-0.12,0.22-0.27,0.34-0.45,0.34c-0.06,0-0.16-0.02-0.31-0.07c-0.17-0.05-0.26-0.09-0.28-0.12l0.01-0.01c0.03,0,0.08,0.01,0.14,0.02
	c0.06,0.01,0.11,0.02,0.15,0.02c0.17,0,0.35-0.07,0.53-0.22c0.19-0.16,0.29-0.32,0.29-0.48c0-0.04-0.01-0.09-0.04-0.15
	c-0.05,0.14-0.13,0.21-0.23,0.21c-0.06,0-0.12-0.04-0.16-0.11c-0.04-0.06-0.05-0.13-0.05-0.2c0-0.08,0.02-0.16,0.07-0.26
	c0.05-0.11,0.12-0.16,0.19-0.16c0.09,0,0.16,0.08,0.22,0.24c0.05,0.13,0.08,0.25,0.08,0.36C10.89,21,10.84,21.19,10.73,21.38z
	 M14.06,20.8c-0.19-0.03-0.3-0.04-0.33-0.04c-0.18,0-0.41,0.06-0.69,0.18s-0.47,0.18-0.58,0.18h-0.7h-0.01h-0.09
	c-0.14,0-0.24-0.07-0.32-0.21c-0.05-0.1-0.09-0.25-0.12-0.44c-0.01-0.14-0.03-0.28-0.04-0.42c-0.01-0.09-0.05-0.32-0.11-0.69
	c0.03-0.1,0.08-0.18,0.14-0.23c0.03,0.29,0.07,0.58,0.1,0.86c0.06,0.45,0.12,0.7,0.17,0.78c0.05,0.07,0.14,0.1,0.27,0.1
	c0.18,0,0.91-0.03,1.08-0.09c0.2-0.07,0.34-0.11,0.44-0.12c-0.19-0.12-0.35-0.18-0.48-0.18c-0.11,0-0.22,0.02-0.35,0.06
	c0.06-0.12,0.11-0.19,0.15-0.23c0.06-0.05,0.15-0.08,0.26-0.08c0.06,0,0.18,0.04,0.36,0.12c0.21,0.09,0.35,0.15,0.4,0.16
	c0.13,0.03,0.32,0.07,0.57,0.1L14.06,20.8z M18.38,20.97c-0.1,0.09-0.13,0.14-0.27,0.14v0H18.1h-0.08h-0.01v0
	c-0.17,0-0.37-0.09-0.61-0.27c-0.18-0.15-0.36-0.3-0.55-0.45c0.04,0.07,0.06,0.15,0.06,0.24c0,0.14-0.05,0.25-0.14,0.33
	c-0.06,0.06-0.24,0.11-0.53,0.16c-0.24,0.04-0.44,0.06-0.59,0.06c-0.21,0-0.68-0.03-0.83-0.1c-0.2-0.09-0.3-0.22-0.3-0.4
	c0-0.17,0.03-0.29,0.1-0.34l0.01,0.01c0,0.01,0,0.03-0.01,0.07c-0.01,0.03-0.01,0.06-0.01,0.07c0,0.17,0.11,0.29,0.32,0.36
	c0.14,0.05,0.61,0.07,0.82,0.07c0.17,0,0.37-0.02,0.6-0.05c0.32-0.05,0.49-0.12,0.49-0.2c0-0.05-0.09-0.18-0.28-0.39
	c-0.19-0.21-0.28-0.35-0.28-0.43c0-0.08,0.02-0.17,0.07-0.27c0.04-0.08,0.17-0.18,0.41-0.29c0.15-0.07,0.38-0.17,0.69-0.29
	c0.29-0.12,0.47-0.19,0.54-0.23c-0.05,0.14-0.13,0.24-0.25,0.3c-0.25,0.1-0.49,0.21-0.74,0.31c-0.42,0.18-0.63,0.3-0.63,0.36
	c0.03,0.05,0.24,0.22,0.64,0.51c0.4,0.3,0.64,0.47,0.73,0.51c0.12,0.06,0.23,0.09,0.34,0.1c0.25-0.01,0.3-0.04,0.34-0.11
	c-0.01-0.03,0.03-0.13-0.07-0.28c0.01-0.05-0.05-0.13,0.01-0.24c0.08,0.12,0.12,0.18,0.12,0.18c0.04,0.08,0.06,0.14,0.06,0.2
	C18.53,20.75,18.48,20.87,18.38,20.97z M19.51,21.58c-0.08-0.07-0.14-0.12-0.2-0.15c0.03-0.06,0.07-0.12,0.13-0.18
	c0.09,0.04,0.15,0.09,0.19,0.15C19.61,21.46,19.57,21.52,19.51,21.58z M19.94,20.97c-0.1,0.1-0.23,0.14-0.37,0.14h-0.16h-0.09h-0.01
	c-0.14,0-0.24-0.07-0.32-0.21c-0.05-0.1-0.09-0.25-0.12-0.44c-0.01-0.14-0.03-0.28-0.04-0.42c-0.01-0.09-0.05-0.32-0.11-0.69
	c0.03-0.1,0.08-0.18,0.14-0.23c0.03,0.29,0.07,0.58,0.1,0.86c0.06,0.45,0.12,0.7,0.17,0.78c0.04,0.06,0.13,0.09,0.24,0.1
	c0.27,0,0.56-0.04,0.6-0.11c-0.01-0.03-0.06-0.13-0.16-0.28c0.01-0.05,0.04-0.13,0.1-0.24c0.08,0.12,0.12,0.18,0.12,0.18
	c0.04,0.08,0.06,0.14,0.06,0.2C20.1,20.75,20.05,20.87,19.94,20.97z"/>
</svg>
