<?xml version="1.0" encoding="utf-8"?>
<!-- Generator: Adobe Illustrator 24.0.2, SVG Export Plug-In . SVG Version: 6.00 Build 0)  -->
<svg version="1.1" id="Layer_1" xmlns="http://www.w3.org/2000/svg" xmlns:xlink="http://www.w3.org/1999/xlink" x="0px" y="0px"
	 viewBox="0 0 24 24" style="enable-background:new 0 0 24 24;" xml:space="preserve">
<style type="text/css">
	.st0{fill-rule:evenodd;clip-rule:evenodd;fill:#F7901E;}
	.st1{fill-rule:evenodd;clip-rule:evenodd;fill:#034694;}
</style>
<path class="st0" d="M22.28,10.02l0.24-0.58h0.35L22.55,10l0.5-0.56h0.26v0.26l-0.57,0.47l0.57-0.29v0.38l-0.58,0.19
	C22.72,10.46,22.6,10.13,22.28,10.02z M21.57,10l-0.13-0.56h0.27l0.06,0.22l0.01-0.22h0.25l-0.01,0.26l0.08-0.26h0.29l-0.21,0.55
	C22.19,9.99,21.9,9.87,21.57,10z M21.1,10.34l-1.66-0.9h0.86l0.5,0.36l-0.33-0.36h0.43l0.21,0.26l-0.12-0.26h0.32l0.18,0.58
	C21.48,10.02,21.27,10.11,21.1,10.34z M20.99,11.05l-2.72,0.75v-0.67l1.7-0.23l-1.7-0.11v-0.55l1.84,0.25l-1.84-0.54V9.45h0.64
	l2.16,1C20.97,10.69,20.95,10.89,20.99,11.05z M18.27,12.9v-0.72l2.73-1.07c0.06,0.24,0.2,0.4,0.37,0.54l-1.66,2.92h-0.73l1.49-2.18
	l-2.19,2.18v-1.14l1.87-1.47L18.27,12.9z M22.09,11.79l0.72,2.77h-0.57l-0.37-1.84l-0.03,1.84h-0.57l0.13-1.79l-0.5,1.79h-0.7
	l1.2-2.9C21.41,11.67,21.67,11.87,22.09,11.79z M22.7,11.31l0.61,0.36v0.35l-0.38-0.18l0.38,0.5v0.46l-0.62-0.56l0.62,1.04v1.28
	l-1.16-2.77C22.54,11.67,22.7,11.31,22.7,11.31z M23.31,11.49l-0.58-0.24c0,0,0.18-0.34,0.02-0.72l0.56-0.14v0.26l-0.32,0.08
	l0.32,0.07v0.25l-0.25,0.01l0.25,0.1V11.49z"/>
<path class="st1" d="M0.69,14.55V9.44h16.99v5.13H0.69V14.55z M13.8,14c0.05,0,0.15-0.07,0.23-0.11c0.01,0.03,0.02,0.05,0.05,0.08
	c0.02,0.02,0.06,0.04,0.1,0.04l0.18-0.1l-0.02-0.05c-0.02,0.01-0.05,0.02-0.07,0.02c-0.03,0-0.07-0.03-0.07-0.11v-0.33
	c0-0.1-0.02-0.17-0.09-0.23c-0.04-0.03-0.1-0.05-0.17-0.05c-0.12,0.02-0.25,0.09-0.3,0.13c-0.04,0.03-0.06,0.05-0.06,0.08
	c0,0.04,0.05,0.08,0.09,0.08c0.03,0,0.05-0.01,0.06-0.05c0.02-0.06,0.03-0.1,0.06-0.12c0.02-0.02,0.05-0.03,0.08-0.03
	c0.09,0,0.16,0.07,0.16,0.2v0.03c-0.04,0.03-0.18,0.08-0.3,0.12c-0.1,0.03-0.16,0.09-0.16,0.18C13.56,13.89,13.65,14,13.8,14z
	 M12.33,13.98h0.46c0.16,0,0.29-0.02,0.4-0.07c0.12-0.06,0.19-0.16,0.19-0.28c0-0.18-0.16-0.26-0.37-0.29v-0.01
	c0.12-0.03,0.28-0.1,0.28-0.27c0-0.09-0.04-0.17-0.12-0.21c-0.06-0.04-0.16-0.06-0.3-0.06h-0.53v0.06c0.16,0.01,0.17,0.02,0.17,0.18
	v0.73c0,0.15-0.01,0.17-0.19,0.18v0.04H12.33z M10.48,13.94c0.03,0.03,0.13,0.06,0.23,0.06c0.17,0,0.34-0.09,0.34-0.26
	c0-0.13-0.1-0.2-0.25-0.25c-0.09-0.03-0.17-0.08-0.17-0.15s0.05-0.12,0.13-0.12c0.09,0,0.17,0.08,0.21,0.18l0.05-0.01
	c0-0.04-0.03-0.16-0.04-0.2c-0.04-0.02-0.09-0.03-0.18-0.03c-0.19,0-0.3,0.11-0.3,0.24c0,0.15,0.14,0.21,0.25,0.26
	c0.1,0.04,0.16,0.08,0.16,0.16c0,0.07-0.06,0.12-0.14,0.12c-0.12,0-0.21-0.11-0.24-0.23l-0.05,0.01
	C10.45,13.78,10.47,13.91,10.48,13.94z M9.81,14c0.05,0,0.15-0.07,0.23-0.11c0.01,0.03,0.02,0.05,0.05,0.08
	c0.02,0.02,0.06,0.04,0.1,0.04l0.18-0.1l-0.02-0.05c-0.02,0.01-0.05,0.02-0.07,0.02c-0.03,0-0.07-0.03-0.07-0.11v-0.33
	c0-0.1-0.02-0.17-0.09-0.23c-0.04-0.03-0.1-0.05-0.17-0.05c-0.12,0.02-0.25,0.09-0.3,0.13c-0.04,0.03-0.06,0.05-0.06,0.08
	c0,0.04,0.05,0.08,0.09,0.08c0.03,0,0.05-0.01,0.06-0.05c0.02-0.06,0.03-0.1,0.06-0.12c0.02-0.02,0.05-0.03,0.08-0.03
	c0.09,0,0.16,0.07,0.16,0.2v0.03c-0.04,0.03-0.18,0.08-0.3,0.12c-0.1,0.03-0.16,0.09-0.16,0.18C9.56,13.89,9.66,14,9.81,14z
	 M7.38,14c0.06,0,0.21-0.03,0.34-0.18l-0.03-0.04c-0.07,0.06-0.15,0.09-0.23,0.09c-0.14,0-0.28-0.1-0.29-0.34
	c0.23-0.01,0.48-0.03,0.51-0.03c0.03-0.01,0.04-0.02,0.04-0.06c0-0.15-0.14-0.28-0.3-0.28l0,0c-0.1,0-0.21,0.05-0.3,0.14
	c-0.08,0.08-0.13,0.19-0.13,0.31C6.99,13.81,7.13,14,7.38,14z M6.43,13.98h0.46v-0.05c-0.13-0.01-0.15-0.02-0.15-0.15v-1.11
	c-0.07,0.02-0.2,0.05-0.3,0.06v0.05c0.13,0.01,0.14,0.01,0.14,0.14v0.86c0,0.12-0.02,0.13-0.15,0.15V13.98z M5.76,14
	c0.02,0,0.07-0.01,0.16-0.05l0.12-0.07V14c0.13-0.04,0.28-0.06,0.33-0.07v-0.05l-0.05-0.01c-0.08-0.01-0.09-0.02-0.09-0.12v-1.09
	C6.13,12.68,6,12.71,5.89,12.72v0.05c0.14,0.01,0.16,0.01,0.16,0.13v0.26c-0.05-0.02-0.1-0.02-0.13-0.02c-0.27,0-0.52,0.2-0.52,0.45
	C5.39,13.86,5.61,14,5.76,14z M4.7,14c0.02,0,0.07-0.01,0.16-0.05l0.12-0.07V14c0.13-0.04,0.28-0.06,0.33-0.07v-0.05l-0.05-0.01
	c-0.08-0.01-0.09-0.02-0.09-0.12v-1.09c-0.08,0.02-0.22,0.05-0.33,0.06v0.05c0.14,0.01,0.16,0.01,0.16,0.13v0.26
	c-0.05-0.02-0.1-0.02-0.13-0.02c-0.27,0-0.52,0.2-0.52,0.45C4.32,13.86,4.54,14,4.7,14z M4.9,12.14C4.88,12.09,4.83,12.05,4.75,12
	c-0.04,0.03-0.07,0.08-0.1,0.14c0.08,0.06,0.14,0.1,0.17,0.13C4.84,12.24,4.87,12.19,4.9,12.14z M4.63,12.15
	c-0.05-0.05-0.12-0.09-0.18-0.12c-0.02,0.03-0.05,0.08-0.08,0.14c0.06,0.04,0.13,0.07,0.17,0.11C4.58,12.25,4.61,12.2,4.63,12.15z
	 M1.96,13.98h0.47v-0.06c-0.14-0.01-0.18-0.03-0.19-0.11c0-0.07,0-0.15,0-0.3l0.03-0.52h0.01l0.45,0.97h0.04l0.49-1h0.01l0.01,0.74
	c0,0.19-0.01,0.21-0.17,0.22v0.05h0.55v-0.05c-0.18-0.01-0.18-0.03-0.19-0.22l-0.02-0.66c-0.01-0.18,0.01-0.19,0.18-0.2v-0.06H3.28
	l-0.46,0.9l-0.45-0.9H2.02v0.06c0.18,0.02,0.19,0.03,0.18,0.26l-0.03,0.37c-0.02,0.2-0.03,0.28-0.04,0.34
	c-0.02,0.07-0.05,0.1-0.17,0.11V13.98z M3.07,10.99c-0.05,0.04-0.08,0.09-0.12,0.15c0.05,0.03,0.1,0.07,0.18,0.12
	c0.05-0.05,0.09-0.1,0.1-0.14C3.21,11.07,3.15,11.03,3.07,10.99z M3.71,11.36c0,0-0.03-0.05-0.1-0.15c-0.05,0.1-0.07,0.16-0.08,0.2
	c0.08,0.12,0.14,0.2,0.15,0.23C3.64,11.7,3.25,11.73,3,11.73c-0.09,0-0.17-0.01-0.19-0.04c-0.05-0.04-0.1-0.16-0.15-0.36
	c-0.01-0.05-0.04-0.19-0.08-0.41c-0.03,0.04-0.05,0.09-0.09,0.15l0.01,0.08c-0.17,0.07-0.25,0.1-0.25,0.1
	c-0.06,0.03-0.13,0.09-0.2,0.18c-0.06,0.08-0.09,0.14-0.09,0.17c0,0.03,0.03,0.06,0.1,0.08c0.06,0.02,0.12,0.03,0.16,0.03
	c0.17,0,0.29-0.05,0.38-0.16c0.03,0.11,0.06,0.19,0.1,0.25c0.06,0.08,0.14,0.12,0.24,0.12h0.04H3h0.29c0.13,0,0.24-0.04,0.34-0.12
	c0.09-0.08,0.14-0.18,0.14-0.29C3.76,11.48,3.75,11.42,3.71,11.36z M3.76,13.93v0.05h0.45v-0.05c-0.13-0.01-0.14-0.02-0.14-0.15
	v-0.63c-0.09,0.03-0.19,0.05-0.29,0.07v0.04c0.12,0.02,0.13,0.03,0.13,0.14v0.37C3.9,13.9,3.89,13.92,3.76,13.93z M4.08,12.9
	c0-0.06-0.04-0.1-0.1-0.1c-0.06,0-0.1,0.04-0.1,0.1c0,0.05,0.05,0.1,0.1,0.1C4.03,13,4.08,12.95,4.08,12.9z M6.65,11.35
	c-0.05-0.11-0.12-0.16-0.18-0.16c-0.02,0-0.06,0.01-0.12,0.04c-0.06,0.03-0.12,0.09-0.17,0.19c-0.06,0.13-0.1,0.2-0.12,0.22
	c-0.05,0.07-0.14,0.1-0.23,0.1H5.76c-0.07,0-0.14-0.01-0.21-0.03c-0.09-0.03-0.14-0.07-0.14-0.12l0-0.04c0,0,0-0.03,0-0.05h-0.1
	c-0.03,0.05-0.05,0.13-0.08,0.15c-0.05,0.03-0.64,0.04-0.78,0.04c-0.12,0-0.2-0.01-0.24-0.06c-0.05-0.06-0.09-0.23-0.15-0.59
	C4.03,10.8,4,10.56,3.97,10.33c-0.06,0.03-0.1,0.09-0.14,0.17c0.06,0.3,0.09,0.49,0.1,0.56c0.01,0.11,0.02,0.23,0.03,0.34
	c0.02,0.16,0.05,0.28,0.1,0.36c0.06,0.11,0.16,0.17,0.28,0.17h0.08l0,0c0.18,0,0.81-0.06,0.87-0.16c0.02,0.04,0.07,0.08,0.16,0.12
	c0.07,0.03,0.15,0.05,0.21,0.05h0.07l0,0c0.09,0,0.16-0.02,0.21-0.05c0.05-0.03,0.1-0.1,0.17-0.2c0.05,0.03,0.12,0.06,0.21,0.08
	c0.08,0.02,0.16,0.03,0.22,0.03c0.09,0,0.15-0.07,0.15-0.2C6.72,11.53,6.69,11.44,6.65,11.35z M7.16,11.4
	c-0.04-0.08-0.08-0.14-0.14-0.19c-0.04,0.08-0.06,0.16-0.08,0.22c0.14,0.17,0.2,0.29,0.2,0.35c0,0.11-0.08,0.23-0.26,0.35
	c-0.17,0.12-0.31,0.17-0.45,0.17c-0.03,0-0.07-0.01-0.13-0.02c-0.06-0.01-0.1-0.02-0.13-0.02l-0.01,0.01
	c0.02,0.03,0.09,0.06,0.25,0.1c0.14,0.04,0.23,0.06,0.28,0.06c0.12,0,0.22-0.06,0.32-0.17c0.09-0.1,0.15-0.2,0.18-0.31
	c0.03-0.11,0.04-0.22,0.04-0.34C7.23,11.56,7.21,11.49,7.16,11.4z M8.15,11.4c-0.05-0.13-0.12-0.2-0.2-0.2
	c-0.06,0-0.12,0.04-0.17,0.13c-0.04,0.07-0.06,0.14-0.06,0.21c0,0.06,0.02,0.11,0.05,0.16c0.04,0.06,0.08,0.09,0.15,0.09
	c0.09,0,0.17-0.06,0.21-0.18c0.02,0.04,0.03,0.08,0.03,0.12c0,0.14-0.08,0.27-0.26,0.39c-0.17,0.12-0.33,0.18-0.48,0.18
	c-0.03,0-0.07-0.01-0.13-0.02c-0.06-0.01-0.1-0.02-0.13-0.02l-0.01,0.01c0.02,0.03,0.09,0.06,0.25,0.1
	c0.14,0.04,0.23,0.06,0.28,0.06c0.16,0,0.29-0.09,0.4-0.27c0.09-0.16,0.15-0.31,0.15-0.47C8.22,11.6,8.2,11.5,8.15,11.4z
	 M8.37,13.98h0.99c0.02-0.06,0.05-0.23,0.07-0.3l-0.06-0.01c-0.03,0.07-0.06,0.14-0.1,0.18C9.21,13.9,9.15,13.91,9,13.91
	c-0.09,0-0.17,0-0.21-0.02c-0.04-0.02-0.05-0.06-0.05-0.15V13.4h0.19c0.18,0,0.19,0.01,0.22,0.14h0.06v-0.36H9.15
	c-0.02,0.12-0.04,0.14-0.22,0.14H8.75v-0.41c0-0.06,0-0.06,0.07-0.06h0.15c0.14,0,0.19,0.01,0.22,0.05
	c0.02,0.04,0.04,0.08,0.06,0.16l0.06-0.01c-0.01-0.1-0.02-0.22-0.02-0.27H8.4v0.06c0.16,0.01,0.17,0.02,0.17,0.19v0.72
	c0,0.15-0.02,0.17-0.2,0.18V13.98z M9.76,10.77c-0.03,0.03-0.07,0.08-0.12,0.14c0.05,0.03,0.1,0.07,0.18,0.12
	c0.05-0.04,0.09-0.09,0.1-0.14C9.9,10.85,9.83,10.81,9.76,10.77z M10.66,11.43c-0.04-0.01-0.17-0.05-0.36-0.13
	c-0.17-0.06-0.27-0.1-0.33-0.1c-0.1,0-0.18,0.02-0.23,0.06c-0.04,0.03-0.08,0.09-0.14,0.19c0.12-0.03,0.22-0.05,0.31-0.05
	c0.12,0,0.26,0.05,0.43,0.15c-0.08,0.01-0.21,0.04-0.39,0.1c-0.16,0.05-0.82,0.08-0.98,0.08c-0.12,0-0.2-0.03-0.24-0.08
	c-0.05-0.06-0.09-0.27-0.15-0.63c-0.03-0.23-0.06-0.47-0.09-0.7c-0.05,0.05-0.1,0.11-0.13,0.19c0.06,0.3,0.09,0.49,0.1,0.56
	c0.01,0.11,0.02,0.23,0.03,0.34c0.02,0.16,0.05,0.28,0.1,0.36c0.06,0.11,0.16,0.17,0.28,0.17h0.08H9h0.63
	c0.09,0,0.26-0.05,0.52-0.14c0.25-0.1,0.46-0.14,0.63-0.14c0.02,0,0.12,0.01,0.29,0.03l0.12-0.17
	C10.96,11.49,10.79,11.46,10.66,11.43z M11.19,13.18l-0.05,0.06l0.01,0.02h0.14v0.53c0,0.15,0.07,0.22,0.21,0.22
	c0.02,0,0.05-0.01,0.08-0.03l0.14-0.07l-0.02-0.05c-0.03,0.01-0.07,0.03-0.13,0.03s-0.12-0.03-0.12-0.17v-0.46h0.21
	c0.03-0.02,0.03-0.06,0.01-0.08h-0.22v-0.26l-0.03-0.01l-0.15,0.13v0.13h-0.08V13.18z M14.49,10.99c-0.04,0.04-0.08,0.09-0.12,0.15
	c0.05,0.03,0.1,0.07,0.18,0.12c0.05-0.05,0.09-0.1,0.1-0.14C14.63,11.07,14.57,11.03,14.49,10.99z M14.91,11.36
	c0,0-0.03-0.05-0.1-0.15c-0.05,0.1,0,0.16-0.01,0.2c0.08,0.12,0.05,0.2,0.06,0.23c-0.03,0.06-0.07,0.09-0.3,0.09
	c-0.1,0-0.2-0.03-0.31-0.08c-0.07-0.03-0.29-0.17-0.65-0.42c-0.36-0.24-0.56-0.38-0.58-0.42c0-0.04,0.19-0.14,0.57-0.29
	c0.22-0.09,0.44-0.17,0.67-0.25c0.1-0.05,0.18-0.13,0.22-0.24c-0.06,0.03-0.22,0.09-0.48,0.18c-0.28,0.1-0.49,0.18-0.62,0.24
	c-0.21,0.09-0.34,0.17-0.37,0.24c-0.04,0.08-0.06,0.16-0.06,0.22c0,0.07,0.08,0.18,0.25,0.35s0.25,0.28,0.25,0.32
	c0,0.07-0.15,0.12-0.44,0.16c-0.21,0.03-0.39,0.04-0.53,0.04c-0.19,0-0.61-0.02-0.73-0.06c-0.19-0.06-0.28-0.16-0.28-0.3
	c0-0.01,0-0.03,0.01-0.06c0-0.03,0.01-0.04,0.01-0.05V11.3c-0.06,0.05-0.08,0.14-0.08,0.28c0,0.15,0.09,0.26,0.27,0.33
	c0.14,0.05,0.57,0.08,0.74,0.08c0.14,0,0.3-0.02,0.52-0.05c0.26-0.04,0.42-0.08,0.48-0.13c0.08-0.07,0.13-0.16,0.13-0.27
	c0-0.07-0.02-0.14-0.05-0.2c0.17,0.12,0.33,0.25,0.49,0.37c0.22,0.15,0.4,0.22,0.55,0.22l0,0h0.01h0.06h0.01l0,0
	c0.13,0,0.16-0.04,0.24-0.12c0.09-0.08,0.14-0.18,0.14-0.29C14.96,11.48,14.94,11.42,14.91,11.36z M14.86,13.21
	c-0.05,0.03-0.09,0.06-0.14,0.09v-0.15c-0.09,0.04-0.2,0.06-0.29,0.07v0.05c0.1,0.02,0.12,0.03,0.12,0.14v0.37
	c0,0.12-0.01,0.13-0.15,0.15v0.05h0.44v-0.05c-0.12-0.01-0.13-0.02-0.13-0.14v-0.42c0.06-0.05,0.14-0.09,0.21-0.09
	c0.13,0,0.18,0.08,0.18,0.2v0.3c0,0.13-0.01,0.14-0.13,0.16v0.05h0.43v-0.05c-0.12-0.01-0.13-0.02-0.13-0.14v-0.34
	c0-0.18-0.1-0.29-0.26-0.29C14.96,13.16,14.91,13.18,14.86,13.21z M16.31,11.36c0,0-0.03-0.05-0.1-0.15
	c-0.05,0.1-0.07,0.16-0.08,0.2c0.09,0.12,0.14,0.2,0.15,0.23c-0.03,0.06-0.29,0.09-0.53,0.09c-0.1,0-0.18-0.03-0.22-0.08
	c-0.05-0.06-0.09-0.27-0.15-0.63c-0.03-0.23-0.06-0.47-0.09-0.7c-0.05,0.05-0.1,0.11-0.13,0.19c0.06,0.3,0.09,0.49,0.1,0.56
	c0.01,0.11,0.02,0.23,0.03,0.34c0.02,0.16,0.05,0.28,0.1,0.36c0.06,0.11,0.16,0.17,0.28,0.17l0,0h0.08h0.15
	c0.13,0,0.24-0.04,0.34-0.12c0.09-0.08,0.14-0.18,0.14-0.29C16.38,11.48,16.36,11.42,16.31,11.36z M15.66,12.18
	c0.04,0.03,0.1,0.07,0.18,0.12c0.06-0.05,0.09-0.1,0.1-0.14c-0.03-0.05-0.09-0.09-0.17-0.12C15.73,12.08,15.7,12.13,15.66,12.18z
	 M16.5,13.93c-0.07,0-0.13-0.03-0.2-0.1c-0.06-0.06-0.27-0.28-0.31-0.34c0.08-0.09,0.12-0.12,0.17-0.17
	c0.07-0.07,0.13-0.09,0.26-0.11v-0.05L16,13.18v0.05c0.09,0.01,0.09,0.03,0.06,0.08c-0.03,0.05-0.09,0.12-0.14,0.16
	c-0.03,0.03-0.06,0.05-0.13,0.06v-0.86c-0.08,0.03-0.21,0.06-0.3,0.06v0.04c0.13,0.01,0.14,0.02,0.14,0.14v0.86
	c0,0.12-0.01,0.13-0.15,0.14v0.05h0.46v-0.05c-0.13-0.01-0.15-0.02-0.15-0.14v-0.2c0.01,0,0.02,0,0.03,0c0.02,0,0.03,0.01,0.05,0.04
	c0.1,0.12,0.23,0.27,0.33,0.36h0.29V13.93z M7.88,11.52c-0.02-0.01-0.03-0.02-0.03-0.04c0-0.01,0.01-0.02,0.03-0.04
	c0.02-0.01,0.04-0.02,0.05-0.02c0.03,0,0.06,0.02,0.09,0.08C8,11.54,7.97,11.54,7.93,11.54C7.91,11.54,7.9,11.53,7.88,11.52z
	 M6.27,11.49c0.02-0.07,0.07-0.1,0.13-0.1c0.04,0,0.08,0.02,0.11,0.06c0.02,0.04,0.04,0.08,0.04,0.12c-0.04,0-0.09-0.01-0.15-0.03
	C6.35,11.53,6.3,11.51,6.27,11.49z M2.19,11.45L2.19,11.45c0-0.01,0.01-0.03,0.04-0.06c0.09-0.03,0.17-0.06,0.21-0.07
	c0.01,0.05,0.02,0.09,0.03,0.12c-0.03,0.03-0.08,0.05-0.15,0.05C2.24,11.49,2.2,11.48,2.19,11.45z M4.77,13.23
	c0.07,0,0.16,0.03,0.2,0.1v0.5c-0.05,0.03-0.12,0.06-0.18,0.06c-0.13,0-0.27-0.1-0.27-0.32C4.52,13.29,4.68,13.23,4.77,13.23z
	 M5.84,13.23c0.07,0,0.16,0.03,0.2,0.1v0.5c-0.05,0.03-0.12,0.06-0.18,0.06c-0.13,0-0.27-0.1-0.27-0.32
	C5.59,13.29,5.75,13.23,5.84,13.23z M7.37,13.22c0.1,0,0.17,0.09,0.17,0.19c0,0.02-0.01,0.03-0.04,0.04c-0.12,0-0.22,0-0.33,0
	C7.2,13.3,7.29,13.22,7.37,13.22L7.37,13.22z M10.03,13.54v0.29c-0.03,0.03-0.09,0.06-0.15,0.06c-0.06,0-0.14-0.04-0.14-0.14
	c0-0.07,0.04-0.1,0.13-0.14C9.91,13.59,9.99,13.56,10.03,13.54z M12.83,12.85c0.18,0,0.26,0.1,0.26,0.24c0,0.15-0.09,0.23-0.3,0.23
	h-0.08v-0.35c0-0.06,0.01-0.08,0.02-0.09C12.74,12.86,12.79,12.85,12.83,12.85z M13.17,13.64c0,0.19-0.15,0.26-0.3,0.27
	c-0.13,0-0.17-0.03-0.17-0.17v-0.36h0.08C13.03,13.38,13.17,13.46,13.17,13.64z M14.02,13.54v0.29c-0.03,0.03-0.09,0.06-0.15,0.06
	c-0.06,0-0.14-0.04-0.14-0.14c0-0.07,0.04-0.1,0.13-0.14C13.9,13.59,13.99,13.56,14.02,13.54z"/>
</svg>
